<svg width="64" height="64" viewBox="0 0 260 260" fill="none" xmlns="http://www.w3.org/2000/svg">
    <rect width="260" height="260" rx="57" fill="#1876D2" />
    <path
        d="M21.629 119.134C21.629 111.736 27.083 106.066 35.021 106.066C42.905 106.066 48.359 111.412 48.359 118.864C48.359 123.022 46.469 126.208 44.903 129.34L36.047 146.62H28.163L35.885 131.392C35.291 131.5 34.643 131.554 33.941 131.554C27.029 131.554 21.629 126.154 21.629 119.134ZM41.123 118.972C41.123 115.354 38.531 112.546 35.021 112.546C31.457 112.546 28.865 115.354 28.865 118.972C28.865 122.32 31.457 125.128 35.021 125.128C38.531 125.128 41.123 122.266 41.123 118.972ZM54.2658 145.486V116.866H61.5558V145.486C61.5558 146.566 60.6378 147.106 57.8838 147.106C55.1838 147.106 54.2658 146.566 54.2658 145.486ZM53.5638 109.036C53.5638 106.66 55.5078 104.716 57.9378 104.716C60.3678 104.716 62.3118 106.66 62.3118 109.036C62.3118 111.466 60.3678 113.41 57.9378 113.41C55.5078 113.41 53.5638 111.466 53.5638 109.036ZM86.5791 145.486V126.856C86.5791 124.156 84.0411 122.968 80.8551 122.968C78.1551 122.968 75.1851 124.426 75.1851 125.884V145.486C75.1851 146.566 74.4291 147.106 71.6751 147.106C68.9751 147.106 68.1651 146.566 68.1651 145.486V117.46H75.0231V119.35C76.6431 117.784 79.2351 116.704 82.8531 116.704C89.1711 116.704 93.5991 120.916 93.5991 127.126V145.486C93.5991 146.566 92.8431 147.106 90.0891 147.106C87.3891 147.106 86.5791 146.566 86.5791 145.486ZM108.886 146.944C108.886 149.698 106.942 151.534 104.242 151.534C101.542 151.534 99.5976 149.698 99.5976 146.944C99.5976 144.19 101.542 142.3 104.242 142.3C106.942 142.3 108.886 144.19 108.886 146.944ZM128.535 140.356H133.017C134.205 140.356 134.637 141.004 134.637 143.434C134.637 145.864 134.205 146.62 133.017 146.62H127.293C123.027 146.62 119.895 144.622 119.895 139.168V123.778H114.117V117.46H119.895V109.198H126.915V117.46H133.179C134.367 117.46 134.799 118.162 134.799 120.592C134.799 123.022 134.367 123.778 133.179 123.778H126.915V138.79C126.915 139.978 127.455 140.356 128.535 140.356ZM145.607 128.962H158.945C158.513 125.56 155.813 122.86 152.249 122.914C148.253 122.968 146.147 125.884 145.607 128.962ZM154.517 147.322C145.391 147.322 138.371 141.922 138.371 132.094C138.371 122.698 144.095 116.704 152.195 116.704C161.267 116.704 166.127 124.48 166.127 132.418C166.127 134.416 165.047 135.172 163.535 135.172H145.661C146.417 139.114 150.251 141.058 154.247 141.058C156.353 141.058 159.053 140.356 160.889 139.762C162.131 139.276 162.833 139.816 163.643 141.76C164.561 144.028 164.507 144.622 163.211 145.378C161.321 146.458 157.649 147.322 154.517 147.322ZM183.625 123.832H174.661C173.203 123.832 172.663 122.914 172.663 120.592C172.663 118.378 173.203 117.46 174.661 117.46H183.949C191.401 117.46 194.479 120.376 194.479 127.828V145.216C194.479 146.62 193.075 147.106 191.023 147.106C189.241 147.106 188.107 146.728 187.621 146.026C185.137 147.052 181.951 147.646 179.521 147.646C173.905 147.646 169.207 144.568 169.207 137.71C169.207 130.96 174.121 127.45 180.763 127.45C183.139 127.45 185.515 127.882 187.405 128.422V127.612C187.405 125.02 186.271 123.832 183.625 123.832ZM181.033 133.66C177.955 133.66 176.281 135.172 176.281 137.656C176.281 139.708 177.577 141.436 180.223 141.436C182.815 141.436 185.353 140.788 187.405 140.032V134.632C185.515 134.146 183.355 133.66 181.033 133.66ZM230.973 145.486V126.478C230.973 124.426 229.191 122.968 226.653 122.968C224.061 122.968 222.711 124.966 222.711 126.478V145.486C222.711 146.566 221.955 147.106 219.201 147.106C216.501 147.106 215.691 146.566 215.691 145.486V126.586C215.691 124.48 213.909 123.022 211.317 123.022C208.779 123.022 207.267 124.966 207.267 126.424V145.486C207.267 146.566 206.511 147.106 203.757 147.106C201.057 147.106 200.247 146.566 200.247 145.486V117.46H207.051V119.512C208.509 117.892 210.237 116.704 213.639 116.704C216.609 116.704 219.309 118.27 220.497 119.944C222.117 118.108 224.601 116.704 228.327 116.704C235.023 116.704 237.993 121.564 237.993 126.964V145.486C237.993 146.566 237.237 147.106 234.483 147.106C231.783 147.106 230.973 146.566 230.973 145.486Z"
        fill="white" />
</svg>