<svg width="64" height="64" viewBox="0 0 260 260" fill="none" xmlns="http://www.w3.org/2000/svg">
    <rect width="260" height="260" rx="57" fill="white" />
    <path
        d="M24.5459 128.062C24.6299 127.642 24.6859 127.306 24.7139 127.054C24.7419 126.774 24.6439 126.48 24.4199 126.172C24.5319 125.724 24.6159 125.374 24.6719 125.122C24.7559 124.87 24.7699 124.52 24.7139 124.072C24.9658 123.344 25.3438 122.729 25.8477 122.225C26.3796 121.721 26.9535 121.301 27.5693 120.965C28.1852 120.601 28.8291 120.307 29.501 120.083C30.1729 119.831 30.8027 119.621 31.3906 119.453C31.3906 119.341 31.3346 119.285 31.2227 119.285C31.1107 119.285 31.0827 119.215 31.1387 119.075C32.6504 118.795 34.1621 118.389 35.6738 117.857C37.2135 117.326 38.7812 116.85 40.377 116.43C41.9727 116.01 43.6104 115.758 45.29 115.674C46.9697 115.562 48.7334 115.772 50.5811 116.304C50.693 116.64 50.847 116.962 51.043 117.27C51.2389 117.577 51.4349 117.885 51.6309 118.193C51.8548 118.473 52.0508 118.753 52.2188 119.033C52.3867 119.313 52.4847 119.607 52.5127 119.915C52.8486 120.223 53.1146 120.559 53.3105 120.923C53.5345 121.259 53.5765 121.721 53.4365 122.309C53.1286 122.533 52.8066 122.757 52.4707 122.98C52.1348 123.204 51.7848 123.414 51.4209 123.61C50.1611 123.302 48.9014 123.19 47.6416 123.274C46.3818 123.358 45.248 123.456 44.2402 123.568C43.9323 123.232 43.5684 123.078 43.1484 123.106C42.7285 123.106 42.2806 123.176 41.8047 123.316C41.3568 123.428 40.9089 123.554 40.4609 123.694C40.013 123.806 39.5931 123.834 39.2012 123.778C38.8932 124.058 38.4873 124.254 37.9834 124.366C37.4795 124.45 36.9476 124.52 36.3877 124.576C36.3597 124.716 36.3877 124.814 36.4717 124.87C36.5557 124.926 36.5697 125.038 36.5137 125.206C36.7096 125.458 36.9756 125.64 37.3115 125.752C37.6475 125.836 37.9834 125.92 38.3193 126.004C38.6833 126.088 39.0052 126.214 39.2852 126.382C39.5651 126.522 39.7471 126.76 39.8311 127.096C40.335 127.124 40.7689 127.264 41.1328 127.516C41.4967 127.74 41.8047 128.02 42.0566 128.355C42.3086 128.691 42.4906 129.055 42.6025 129.447C42.7145 129.811 42.7565 130.147 42.7285 130.455C42.8405 130.735 42.9525 130.847 43.0645 130.791C43.2044 130.735 43.3584 130.805 43.5264 131.001C43.6383 131.421 43.8903 131.869 44.2822 132.345C44.7021 132.793 45.0241 133.283 45.248 133.814C45.304 134.654 45.346 135.41 45.374 136.082C45.43 136.754 45.318 137.412 45.0381 138.056C44.5622 139.287 43.8763 140.393 42.9805 141.373C42.0846 142.353 41.0628 143.221 39.915 143.977C38.7952 144.704 37.6055 145.348 36.3457 145.908C35.0859 146.44 33.8402 146.888 32.6084 147.252C32.4964 147.224 32.3564 147.224 32.1885 147.252C32.0485 147.28 32.0205 147.196 32.1045 147C31.8525 147.224 31.5586 147.364 31.2227 147.42C30.9147 147.476 30.5648 147.49 30.1729 147.462C29.8089 147.462 29.431 147.448 29.0391 147.42C28.6751 147.392 28.3112 147.406 27.9473 147.462C27.7233 147.238 27.5133 147.014 27.3174 146.79C27.1494 146.566 27.0094 146.3 26.8975 145.992C26.7575 145.964 26.6875 145.88 26.6875 145.74C26.7155 145.572 26.6595 145.488 26.5195 145.488C26.5195 145.376 26.5335 145.292 26.5615 145.236C26.5895 145.18 26.6175 145.124 26.6455 145.068C26.7575 144.984 26.7995 144.928 26.7715 144.9C26.7715 144.844 26.7295 144.802 26.6455 144.774C26.5895 144.718 26.5195 144.662 26.4355 144.606C26.3796 144.55 26.3656 144.48 26.3936 144.396C26.5335 144.145 26.5755 143.851 26.5195 143.515C26.4915 143.151 26.4635 142.787 26.4355 142.423C26.4076 142.059 26.4355 141.723 26.5195 141.415C26.6035 141.079 26.8415 140.799 27.2334 140.575C28.3812 140.687 29.459 140.631 30.4668 140.407C31.5026 140.183 32.4684 139.875 33.3643 139.483C34.2881 139.091 35.1559 138.672 35.9678 138.224C36.8076 137.748 37.6195 137.314 38.4033 136.922C38.4873 136.642 38.6133 136.404 38.7812 136.208C38.9772 136.012 39.1732 135.83 39.3691 135.662C39.5651 135.466 39.7471 135.27 39.915 135.074C40.083 134.85 40.209 134.584 40.293 134.276C40.321 134.164 40.321 134.08 40.293 134.024C40.265 133.968 40.223 133.926 40.167 133.898C40.111 133.842 40.055 133.786 39.999 133.73C39.943 133.674 39.915 133.59 39.915 133.479C39.8311 133.451 39.7471 133.423 39.6631 133.395C39.6071 133.367 39.5511 133.353 39.4951 133.353C38.7673 132.989 37.9974 132.681 37.1855 132.429C36.3737 132.177 35.6878 131.897 35.1279 131.589C34.792 131.813 34.4561 131.869 34.1201 131.757C33.7842 131.645 33.3783 131.533 32.9023 131.421C31.7266 131.365 30.6068 131.253 29.543 131.085C28.5072 130.917 27.4993 130.623 26.5195 130.203C26.4635 130.035 26.3936 129.895 26.3096 129.783C26.2256 129.643 26.0296 129.601 25.7217 129.657C25.5257 129.377 25.3158 129.125 25.0918 128.901C24.8958 128.649 24.7139 128.369 24.5459 128.062ZM72.097 147.546C71.1172 147.098 70.3333 146.44 69.7454 145.572C69.1855 144.704 68.6256 143.739 68.0657 142.675C67.9818 142.507 67.8978 142.339 67.8138 142.171C67.7298 142.003 67.6458 141.849 67.5618 141.709L66.9739 140.617L66.638 139.945L66.1341 140.407L65.3782 141.079L64.9583 141.499C64.2305 142.171 63.4886 142.843 62.7327 143.515C62.0049 144.159 61.221 144.746 60.3812 145.278C59.5693 145.782 58.7015 146.202 57.7777 146.538C56.8818 146.846 55.902 147.014 54.8382 147.042L53.9144 146.58C53.3825 146.3 52.9346 146.048 52.5706 145.824C52.2067 145.6 51.7868 145.25 51.3109 144.774C51.1709 144.522 51.0449 144.285 50.9329 144.061C50.8489 143.837 50.751 143.613 50.639 143.389C50.331 142.829 50.0791 142.325 49.8831 141.877C49.6872 141.429 49.4912 140.925 49.2952 140.365C49.3792 139.973 49.5052 139.315 49.6732 138.392C49.8411 137.44 50.0371 136.404 50.2611 135.284C50.513 134.164 50.765 133.045 51.0169 131.925C51.2969 130.777 51.5768 129.783 51.8568 128.943C52.1087 128.215 52.3887 127.446 52.6966 126.634C53.0325 125.822 53.3825 125.08 53.7464 124.408C54.1383 123.708 54.5583 123.12 55.0062 122.645C55.4541 122.141 55.93 121.847 56.4339 121.763C56.5739 121.959 56.7279 122.099 56.8958 122.183C57.0638 122.267 57.2178 122.337 57.3577 122.393C57.7497 122.952 58.1276 123.428 58.4915 123.82C58.8835 124.212 59.3314 124.604 59.8353 124.996C59.6953 125.696 59.4853 126.48 59.2054 127.348C58.9534 128.188 58.6735 129.041 58.3655 129.909C58.0856 130.749 57.8057 131.575 57.5257 132.387C57.2458 133.199 57.0218 133.898 56.8538 134.486C56.6859 134.962 56.5459 135.494 56.4339 136.082C56.182 137.118 55.944 138.532 55.72 140.323C56.056 140.239 56.4199 140.057 56.8118 139.777C57.2038 139.497 57.5817 139.203 57.9456 138.896C58.3655 138.56 58.7855 138.182 59.2054 137.762C59.7373 137.23 60.1852 136.74 60.5491 136.292C60.9131 135.844 61.249 135.382 61.557 134.906C61.8929 134.43 62.2288 133.912 62.5648 133.353C62.9007 132.765 63.3066 132.079 63.7825 131.295C64.2025 130.623 64.6364 129.909 65.0843 129.153C65.5602 128.369 66.0221 127.628 66.47 126.928C66.946 126.2 67.4079 125.542 67.8558 124.954C68.3037 124.366 68.7096 123.904 69.0736 123.568C69.2975 123.848 69.5775 124.114 69.9134 124.366C70.2773 124.618 70.6553 124.814 71.0472 124.954C71.2152 125.206 71.3691 125.444 71.5091 125.668C71.6771 125.864 71.831 126.046 71.971 126.214C72.139 126.466 72.293 126.704 72.4329 126.928C72.6009 127.152 72.7549 127.376 72.8948 127.6C72.8668 127.796 72.8249 128.048 72.7689 128.355C72.7129 128.663 72.6429 128.999 72.5589 129.363C72.5029 129.727 72.4329 130.105 72.3489 130.497C72.265 130.861 72.181 131.211 72.097 131.547C71.873 132.611 71.7051 133.409 71.5931 133.94C71.4811 134.472 71.3971 134.892 71.3411 135.2C71.3131 135.508 71.2851 135.774 71.2571 135.998C71.2571 136.194 71.2571 136.474 71.2571 136.838C71.2292 137.118 71.2432 137.398 71.2991 137.678C71.3271 137.93 71.3831 138.196 71.4671 138.476C71.5511 138.756 71.6631 139.007 71.803 139.231L73.4827 137.93C73.9586 137.566 74.4066 137.076 74.8265 136.46C75.2744 135.816 75.6943 135.088 76.0863 134.276C76.5062 133.437 76.9121 132.527 77.304 131.547C77.696 130.567 78.0879 129.573 78.4798 128.565C79.0677 127.082 79.6556 125.64 80.2435 124.24C80.8594 122.84 81.4473 121.763 82.0071 121.007C82.623 121.399 83.1549 121.805 83.6029 122.225C84.0788 122.617 84.4847 123.05 84.8206 123.526C85.1566 124.002 85.4225 124.548 85.6185 125.164C85.8424 125.78 85.9964 126.508 86.0804 127.348C85.5765 128.327 85.0866 129.335 84.6107 130.371C84.1627 131.407 83.7288 132.443 83.3089 133.479C82.749 134.822 82.1611 136.166 81.5452 137.51C80.9573 138.854 80.2995 140.141 79.5716 141.373C78.8437 142.577 78.0319 143.697 77.1361 144.732C76.2402 145.74 75.2044 146.594 74.0286 147.294C73.7207 147.21 73.4547 147.168 73.2308 147.168C72.7829 147.168 72.4049 147.294 72.097 147.546ZM92.5211 144.061C92.6611 144.9 92.6051 145.558 92.3532 146.034C92.1292 146.51 91.7933 146.86 91.3454 147.084C90.9254 147.336 90.4355 147.476 89.8756 147.504C89.3157 147.532 88.7838 147.504 88.2799 147.42C88 147.028 87.748 146.538 87.5241 145.95C87.3001 145.362 87.0901 144.76 86.8942 144.145C86.6982 143.501 86.5163 142.871 86.3483 142.255C86.2083 141.639 86.0823 141.093 85.9704 140.617C86.1103 140.281 86.1943 139.903 86.2223 139.483C86.2783 139.035 86.3063 138.588 86.3063 138.14C86.3343 137.692 86.3483 137.244 86.3483 136.796C86.3763 136.32 86.4183 135.872 86.4743 135.452C86.6702 134.276 86.9502 133.157 87.3141 132.093C87.706 131.029 88.014 129.923 88.2379 128.775C88.2939 128.523 88.2659 128.285 88.1539 128.062C88.07 127.838 88.056 127.628 88.112 127.432C88.1399 127.32 88.2239 127.25 88.3639 127.222C88.5039 127.166 88.5879 127.068 88.6159 126.928C88.6998 126.62 88.7138 126.368 88.6579 126.172C88.6299 125.976 88.6858 125.738 88.8258 125.458C88.9658 125.234 89.1338 124.912 89.3297 124.492C89.5537 124.044 89.6377 123.582 89.5817 123.106C89.8336 122.938 90.0716 122.743 90.2955 122.519C90.5195 122.295 90.7435 122.099 90.9674 121.931C91.2194 121.735 91.4853 121.567 91.7653 121.427C92.0732 121.287 92.4371 121.217 92.8571 121.217C93.081 121.497 93.221 121.805 93.277 122.141C93.361 122.477 93.431 122.812 93.487 123.148C93.5709 123.484 93.6829 123.806 93.8229 124.114C93.9629 124.394 94.2008 124.618 94.5368 124.786C94.5368 125.01 94.5368 125.29 94.5368 125.626C94.5368 125.962 94.5508 126.298 94.5788 126.634C94.6067 126.942 94.6627 127.236 94.7467 127.516C94.8587 127.768 95.0267 127.936 95.2506 128.02C94.7467 129.363 94.2708 130.693 93.8229 132.009C93.403 133.325 93.053 134.654 92.7731 135.998C92.4931 137.314 92.3112 138.644 92.2272 139.987C92.1712 141.331 92.2692 142.689 92.5211 144.061ZM126.131 146.244C125.851 146.384 125.585 146.51 125.333 146.622C125.109 146.734 124.843 146.79 124.535 146.79C123.443 145.978 122.869 144.564 122.813 142.549C122.785 140.533 123.219 137.972 124.115 134.864C124.255 134.78 124.325 134.612 124.325 134.36L123.947 133.94C123.835 133.94 123.723 133.954 123.611 133.982C123.527 134.01 123.457 134.108 123.401 134.276C122.673 134.808 121.876 135.368 121.008 135.956C120.14 136.516 119.23 137.048 118.278 137.552C117.354 138.028 116.403 138.42 115.423 138.728C114.471 139.035 113.533 139.189 112.609 139.189C110.258 139.189 108.494 138 107.318 135.62L106.982 134.99L106.646 135.536C106.562 135.648 106.436 135.886 106.269 136.25C106.101 136.586 105.933 136.978 105.765 137.426C105.597 137.874 105.443 138.336 105.303 138.812C105.191 139.259 105.149 139.651 105.177 139.987C104.925 140.239 104.659 140.533 104.379 140.869C104.099 141.205 103.889 141.583 103.749 142.003C103.693 142.227 103.721 142.437 103.833 142.633C103.777 142.885 103.651 143.081 103.455 143.221C103.343 143.361 103.217 143.501 103.077 143.641C102.965 143.753 102.867 143.879 102.783 144.019C102.727 144.159 102.685 144.299 102.657 144.438C102.657 144.578 102.643 144.718 102.615 144.858C102.615 145.054 102.587 145.236 102.531 145.404C102.055 146.384 101.677 147.014 101.397 147.294C101.117 147.602 100.74 147.756 100.264 147.756C100.04 147.756 99.6757 147.714 99.1718 147.63C98.8079 147.238 98.472 146.706 98.164 146.034C97.8841 145.334 97.6601 144.592 97.4921 143.809C97.3522 143.025 97.2822 142.241 97.2822 141.457C97.3102 140.645 97.4502 139.945 97.7021 139.357C97.7021 139.329 97.8141 139.049 98.038 138.518C98.262 137.986 98.542 137.3 98.8779 136.46C99.2418 135.62 99.6477 134.696 100.096 133.688C100.544 132.653 100.991 131.659 101.439 130.707C101.887 129.727 102.307 128.831 102.699 128.02C103.119 127.208 103.469 126.592 103.749 126.172C103.973 125.836 104.169 125.528 104.337 125.248C104.533 124.94 104.715 124.646 104.883 124.366C105.387 123.498 105.863 122.785 106.311 122.225C106.786 121.637 107.472 121.175 108.368 120.839C108.984 121.091 109.432 121.385 109.712 121.721L109.796 122.183C109.908 122.463 110.076 122.603 110.3 122.603C110.608 122.687 110.86 122.771 111.056 122.854C111.28 122.91 111.518 122.966 111.769 123.022C111.965 123.246 112.147 123.512 112.315 123.82C112.539 124.156 112.749 124.492 112.945 124.828C113.169 125.136 113.337 125.458 113.449 125.794C113.589 126.102 113.659 126.424 113.659 126.76C113.687 127.096 113.631 127.446 113.491 127.81L113.533 128.229C113.673 128.481 113.701 128.831 113.617 129.279C113.589 129.475 113.575 129.685 113.575 129.909C113.575 130.105 113.603 130.329 113.659 130.581C114.163 130.973 114.611 131.169 115.003 131.169C115.451 131.169 115.857 131.071 116.221 130.875C116.613 130.651 116.977 130.427 117.312 130.203C117.536 130.035 117.76 129.895 117.984 129.783C118.208 129.643 118.432 129.559 118.656 129.531C119.16 129.055 119.608 128.635 120 128.271C120.42 127.908 120.854 127.544 121.302 127.18C122.142 126.508 122.953 125.78 123.737 124.996C124.521 124.212 125.151 123.232 125.627 122.057C125.907 121.889 126.201 121.805 126.509 121.805C126.817 121.805 127.139 121.875 127.475 122.015C127.811 122.155 128.132 122.295 128.44 122.435C128.524 122.491 128.594 122.533 128.65 122.561C128.734 122.589 128.804 122.617 128.86 122.645C128.86 122.924 128.972 123.162 129.196 123.358C129.308 123.442 129.378 123.498 129.406 123.526C129.434 123.554 129.476 123.582 129.532 123.61C129.952 123.834 130.218 124.058 130.33 124.282C130.526 124.926 130.876 125.416 131.38 125.752C131.324 126.032 131.324 126.298 131.38 126.55C131.464 126.774 131.562 127.012 131.674 127.264C131.702 127.348 131.73 127.432 131.758 127.516C131.786 127.6 131.828 127.698 131.884 127.81L131.086 127.726L131.212 128.523C131.268 128.915 131.226 129.349 131.086 129.825C130.974 130.301 130.834 130.679 130.666 130.959C130.694 131.687 130.708 132.261 130.708 132.681C130.736 133.073 130.722 133.451 130.666 133.814C130.61 134.15 130.526 134.472 130.414 134.78C130.33 135.088 130.204 135.424 130.036 135.788C130.148 137.58 129.938 139.217 129.406 140.701C128.902 142.157 128.37 143.529 127.811 144.816C127.755 144.956 127.685 145.096 127.601 145.236C127.545 145.376 127.489 145.516 127.433 145.656C127.181 145.74 126.957 145.838 126.761 145.95C126.565 146.034 126.355 146.132 126.131 146.244ZM160.832 146.244C160.552 146.384 160.286 146.51 160.034 146.622C159.81 146.734 159.545 146.79 159.237 146.79C158.145 145.978 157.571 144.564 157.515 142.549C157.487 140.533 157.921 137.972 158.817 134.864C158.957 134.78 159.027 134.612 159.027 134.36L158.649 133.94C158.537 133.94 158.425 133.954 158.313 133.982C158.229 134.01 158.159 134.108 158.103 134.276C157.375 134.808 156.577 135.368 155.709 135.956C154.841 136.516 153.932 137.048 152.98 137.552C152.056 138.028 151.104 138.42 150.124 138.728C149.172 139.035 148.235 139.189 147.311 139.189C144.959 139.189 143.196 138 142.02 135.62L141.684 134.99L141.348 135.536C141.264 135.648 141.138 135.886 140.97 136.25C140.802 136.586 140.634 136.978 140.466 137.426C140.298 137.874 140.144 138.336 140.004 138.812C139.892 139.259 139.85 139.651 139.878 139.987C139.626 140.239 139.36 140.533 139.08 140.869C138.8 141.205 138.59 141.583 138.45 142.003C138.394 142.227 138.422 142.437 138.534 142.633C138.478 142.885 138.352 143.081 138.157 143.221C138.045 143.361 137.919 143.501 137.779 143.641C137.667 143.753 137.569 143.879 137.485 144.019C137.429 144.159 137.387 144.299 137.359 144.438C137.359 144.578 137.345 144.718 137.317 144.858C137.317 145.054 137.289 145.236 137.233 145.404C136.757 146.384 136.379 147.014 136.099 147.294C135.819 147.602 135.441 147.756 134.965 147.756C134.741 147.756 134.377 147.714 133.873 147.63C133.509 147.238 133.173 146.706 132.866 146.034C132.586 145.334 132.362 144.592 132.194 143.809C132.054 143.025 131.984 142.241 131.984 141.457C132.012 140.645 132.152 139.945 132.404 139.357C132.404 139.329 132.516 139.049 132.74 138.518C132.963 137.986 133.243 137.3 133.579 136.46C133.943 135.62 134.349 134.696 134.797 133.688C135.245 132.653 135.693 131.659 136.141 130.707C136.589 129.727 137.009 128.831 137.401 128.02C137.821 127.208 138.171 126.592 138.45 126.172C138.674 125.836 138.87 125.528 139.038 125.248C139.234 124.94 139.416 124.646 139.584 124.366C140.088 123.498 140.564 122.785 141.012 122.225C141.488 121.637 142.174 121.175 143.07 120.839C143.685 121.091 144.133 121.385 144.413 121.721L144.497 122.183C144.609 122.463 144.777 122.603 145.001 122.603C145.309 122.687 145.561 122.771 145.757 122.854C145.981 122.91 146.219 122.966 146.471 123.022C146.667 123.246 146.849 123.512 147.017 123.82C147.241 124.156 147.451 124.492 147.647 124.828C147.871 125.136 148.039 125.458 148.151 125.794C148.291 126.102 148.361 126.424 148.361 126.76C148.389 127.096 148.333 127.446 148.193 127.81L148.235 128.229C148.375 128.481 148.403 128.831 148.319 129.279C148.291 129.475 148.277 129.685 148.277 129.909C148.277 130.105 148.305 130.329 148.361 130.581C148.865 130.973 149.312 131.169 149.704 131.169C150.152 131.169 150.558 131.071 150.922 130.875C151.314 130.651 151.678 130.427 152.014 130.203C152.238 130.035 152.462 129.895 152.686 129.783C152.91 129.643 153.134 129.559 153.358 129.531C153.862 129.055 154.31 128.635 154.701 128.271C155.121 127.908 155.555 127.544 156.003 127.18C156.843 126.508 157.655 125.78 158.439 124.996C159.223 124.212 159.852 123.232 160.328 122.057C160.608 121.889 160.902 121.805 161.21 121.805C161.518 121.805 161.84 121.875 162.176 122.015C162.512 122.155 162.834 122.295 163.142 122.435C163.226 122.491 163.296 122.533 163.352 122.561C163.436 122.589 163.506 122.617 163.562 122.645C163.562 122.924 163.674 123.162 163.898 123.358C164.01 123.442 164.08 123.498 164.108 123.526C164.136 123.554 164.178 123.582 164.234 123.61C164.654 123.834 164.92 124.058 165.032 124.282C165.227 124.926 165.577 125.416 166.081 125.752C166.025 126.032 166.025 126.298 166.081 126.55C166.165 126.774 166.263 127.012 166.375 127.264C166.403 127.348 166.431 127.432 166.459 127.516C166.487 127.6 166.529 127.698 166.585 127.81L165.787 127.726L165.913 128.523C165.969 128.915 165.927 129.349 165.787 129.825C165.675 130.301 165.535 130.679 165.367 130.959C165.395 131.687 165.409 132.261 165.409 132.681C165.437 133.073 165.423 133.451 165.367 133.814C165.311 134.15 165.227 134.472 165.116 134.78C165.032 135.088 164.906 135.424 164.738 135.788C164.85 137.58 164.64 139.217 164.108 140.701C163.604 142.157 163.072 143.529 162.512 144.816C162.456 144.956 162.386 145.096 162.302 145.236C162.246 145.376 162.19 145.516 162.134 145.656C161.882 145.74 161.658 145.838 161.462 145.95C161.266 146.034 161.056 146.132 160.832 146.244ZM189.907 123.358C189.935 123.554 189.935 123.708 189.907 123.82C189.907 123.904 189.893 123.988 189.865 124.072C189.865 124.156 189.865 124.254 189.865 124.366C189.865 124.45 189.893 124.59 189.949 124.786C189.361 125.738 188.675 126.396 187.891 126.76C187.135 127.096 186.309 127.348 185.414 127.516C184.518 127.656 183.594 127.81 182.642 127.978C181.718 128.146 180.795 128.509 179.871 129.069C179.507 128.929 179.171 128.929 178.863 129.069C178.583 129.209 178.163 129.251 177.603 129.195C177.435 129.363 177.225 129.489 176.973 129.573C176.721 129.629 176.469 129.699 176.217 129.783C176.329 130.035 176.371 130.301 176.343 130.581C176.343 130.833 176.385 131.043 176.469 131.211C177.449 131.295 178.527 131.281 179.703 131.169C180.907 131.057 182.082 130.987 183.23 130.959C183.258 131.099 183.244 131.197 183.188 131.253C183.132 131.281 183.118 131.351 183.146 131.463C183.342 131.603 183.538 131.785 183.734 132.009C183.93 132.205 184.126 132.401 184.322 132.597C184.518 132.793 184.714 132.961 184.91 133.101C185.134 133.213 185.386 133.255 185.666 133.227C185.778 133.451 185.848 133.702 185.876 133.982C185.932 134.234 185.904 134.5 185.792 134.78C185.344 135.088 184.896 135.41 184.448 135.746C184 136.054 183.524 136.334 183.02 136.586C182.544 136.838 182.026 137.048 181.466 137.216C180.934 137.356 180.333 137.412 179.661 137.384C179.521 137.384 179.409 137.384 179.325 137.384C179.269 137.384 179.185 137.342 179.073 137.258C178.849 137.398 178.527 137.44 178.107 137.384C177.715 137.328 177.407 137.37 177.183 137.51C176.875 137.37 176.497 137.314 176.049 137.342C175.629 137.342 175.252 137.286 174.916 137.174C174.468 137.762 174.062 138.392 173.698 139.063C173.334 139.735 173.012 140.449 172.732 141.205C173.684 141.345 174.468 141.401 175.084 141.373C175.727 141.345 176.329 141.303 176.889 141.247C177.449 141.163 178.023 141.093 178.611 141.037C179.199 140.953 179.941 140.925 180.837 140.953C181.396 140.645 182.054 140.449 182.81 140.365C183.594 140.253 184.308 140.085 184.952 139.861C185.176 139.945 185.372 140.099 185.54 140.323C185.708 140.519 185.862 140.715 186.002 140.911C186.17 141.079 186.337 141.233 186.505 141.373C186.673 141.513 186.883 141.569 187.135 141.541C187.247 141.653 187.317 141.793 187.345 141.961C187.401 142.101 187.443 142.241 187.471 142.381C187.499 142.521 187.541 142.647 187.597 142.759C187.681 142.843 187.807 142.871 187.975 142.843C187.555 143.767 187.065 144.48 186.505 144.984C185.974 145.46 185.358 145.824 184.658 146.076C183.958 146.328 183.174 146.524 182.306 146.664C181.466 146.804 180.529 146.972 179.493 147.168C179.241 147.224 179.031 147.21 178.863 147.126C178.695 147.07 178.499 147.042 178.275 147.042C177.631 147.182 176.861 147.308 175.965 147.42C175.07 147.532 174.16 147.574 173.236 147.546C172.312 147.518 171.43 147.392 170.59 147.168C169.751 146.972 169.065 146.608 168.533 146.076C168.309 145.88 168.155 145.656 168.071 145.404C168.015 145.124 167.833 144.914 167.525 144.774C167.497 144.41 167.441 144.005 167.357 143.557C167.273 143.109 167.189 142.647 167.105 142.171C167.021 141.667 166.951 141.177 166.895 140.701C166.867 140.225 166.895 139.791 166.979 139.399C167.063 138.979 167.231 138.602 167.483 138.266C167.763 137.93 167.861 137.566 167.777 137.174C167.917 137.146 168.001 137.076 168.029 136.964C168.057 136.824 168.169 136.768 168.365 136.796C168.533 136.292 168.715 135.816 168.911 135.368C169.107 134.92 169.303 134.486 169.499 134.066C169.723 133.646 169.933 133.227 170.129 132.807C170.352 132.359 170.562 131.869 170.758 131.337C170.366 130.973 170.073 130.581 169.877 130.161C169.709 129.713 169.583 129.279 169.499 128.859C169.415 128.411 169.345 127.964 169.289 127.516C169.233 127.04 169.135 126.564 168.995 126.088C169.275 125.668 169.611 125.332 170.003 125.08C170.422 124.8 170.87 124.576 171.346 124.408C171.822 124.24 172.34 124.1 172.9 123.988C173.46 123.876 174.048 123.75 174.664 123.61C175.783 123.246 176.777 122.966 177.645 122.771C178.541 122.575 179.409 122.421 180.249 122.309C181.116 122.169 182.012 122.043 182.936 121.931C183.86 121.819 184.91 121.651 186.086 121.427C186.337 121.679 186.575 121.805 186.799 121.805C186.911 121.553 187.037 121.483 187.177 121.595C187.345 121.679 187.415 121.595 187.387 121.343C187.667 121.819 188.017 122.225 188.437 122.561C188.885 122.868 189.375 123.134 189.907 123.358ZM194.92 142.633C194.612 143.753 194.332 144.606 194.08 145.194C193.856 145.754 193.506 146.342 193.03 146.958C192.666 146.902 192.414 146.944 192.274 147.084C192.134 147.224 191.98 147.35 191.812 147.462C191.56 147.518 191.379 147.518 191.267 147.462C191.155 147.406 191.057 147.336 190.973 147.252C190.889 147.196 190.777 147.126 190.637 147.042C190.525 146.986 190.343 146.958 190.091 146.958C190.035 146.734 189.965 146.524 189.881 146.328C189.825 146.132 189.643 146.062 189.335 146.118C189.391 145.894 189.405 145.712 189.377 145.572C189.349 145.404 189.307 145.264 189.251 145.152C189.223 145.012 189.195 144.886 189.167 144.774C189.139 144.634 189.153 144.466 189.209 144.271C189.069 144.271 188.957 144.173 188.873 143.977C188.789 143.781 188.691 143.585 188.579 143.389C188.663 142.885 188.747 142.409 188.831 141.961C188.915 141.513 189.013 141.093 189.125 140.701C189.265 140.309 189.377 139.917 189.461 139.525C189.545 139.133 189.503 138.728 189.335 138.308C189.447 138.392 189.531 138.378 189.587 138.266C189.643 138.126 189.685 137.958 189.713 137.762C189.741 137.538 189.755 137.328 189.755 137.132C189.755 136.908 189.741 136.726 189.713 136.586C189.993 135.858 190.217 135.116 190.385 134.36C190.581 133.576 190.749 132.807 190.889 132.051C191.057 131.295 191.225 130.553 191.393 129.825C191.56 129.097 191.784 128.425 192.064 127.81C192.372 127.754 192.708 127.796 193.072 127.936C193.464 128.048 193.702 128.201 193.786 128.397C194.514 127.838 195.158 127.166 195.718 126.382C196.278 125.57 196.851 124.786 197.439 124.03C198.027 123.274 198.671 122.603 199.371 122.015C200.099 121.427 201.009 121.077 202.101 120.965C202.66 121.385 203.276 121.819 203.948 122.267C204.648 122.687 205.222 123.246 205.67 123.946C205.894 124.058 206.076 124.184 206.216 124.324C206.384 124.436 206.58 124.562 206.804 124.702V125.206C207.14 125.514 207.406 125.878 207.601 126.298C207.825 126.69 208.021 127.124 208.189 127.6C208.357 128.048 208.525 128.509 208.693 128.985C208.861 129.433 209.057 129.867 209.281 130.287C209.225 130.427 209.197 130.553 209.197 130.665C209.197 130.749 209.211 130.847 209.239 130.959C209.295 131.071 209.337 131.183 209.365 131.295C209.393 131.407 209.393 131.561 209.365 131.757C209.281 132.989 208.875 133.982 208.147 134.738C207.448 135.494 206.594 136.124 205.586 136.628C204.578 137.104 203.5 137.51 202.352 137.846C201.205 138.182 200.169 138.546 199.245 138.938C199.245 139.049 199.287 139.105 199.371 139.105C199.483 139.105 199.525 139.175 199.497 139.315C200.169 139.735 200.701 140.071 201.093 140.323C201.485 140.575 201.849 140.785 202.184 140.953C202.548 141.121 202.926 141.275 203.318 141.415C203.738 141.527 204.312 141.667 205.04 141.835C205.768 142.003 206.328 142.143 206.72 142.255C207.14 142.339 207.518 142.423 207.853 142.507C208.189 142.563 208.525 142.619 208.861 142.675C209.225 142.703 209.729 142.745 210.373 142.801C210.625 143.053 210.835 143.361 211.003 143.725C211.199 144.061 211.325 144.41 211.381 144.774C211.437 145.11 211.451 145.446 211.423 145.782C211.395 146.09 211.297 146.342 211.129 146.538C211.157 146.622 211.213 146.664 211.297 146.664C211.409 146.636 211.521 146.636 211.633 146.664C211.465 146.776 211.325 146.916 211.213 147.084C211.101 147.252 210.989 147.42 210.877 147.588C210.765 147.756 210.639 147.896 210.499 148.008C210.359 148.148 210.163 148.232 209.911 148.26C209.043 148.596 207.951 148.61 206.636 148.302C205.32 148.022 203.654 147.49 201.639 146.706C200.631 146.314 199.805 145.978 199.161 145.698C198.545 145.39 197.999 145.096 197.523 144.816C197.075 144.508 196.656 144.187 196.264 143.851C195.9 143.515 195.452 143.109 194.92 142.633ZM200.925 128.229C200.617 128.677 200.267 129.083 199.875 129.447C199.511 129.811 199.147 130.189 198.783 130.581C198.447 130.945 198.139 131.365 197.859 131.841C197.579 132.289 197.383 132.821 197.271 133.437C198.251 133.325 199.273 133.059 200.337 132.639C201.401 132.191 202.408 131.771 203.36 131.379C203.248 130.511 202.94 129.811 202.436 129.279C201.961 128.747 201.457 128.397 200.925 128.229ZM211.775 128.104C211.971 127.516 212.279 127.012 212.698 126.592C213.146 126.172 213.622 125.822 214.126 125.542C214.658 125.234 215.204 124.982 215.764 124.786C216.324 124.59 216.856 124.422 217.36 124.282C218.479 123.806 219.669 123.358 220.929 122.938C222.217 122.491 223.518 122.099 224.834 121.763C226.178 121.427 227.55 121.217 228.949 121.133C230.349 121.021 231.819 121.189 233.359 121.637C233.443 121.917 233.569 122.183 233.737 122.435C233.905 122.687 234.072 122.938 234.24 123.19C234.436 123.442 234.604 123.694 234.744 123.946C234.884 124.17 234.968 124.408 234.996 124.66C235.276 124.912 235.5 125.192 235.668 125.5C235.836 125.78 235.864 126.158 235.752 126.634C235.472 126.858 235.192 127.068 234.912 127.264C234.66 127.432 234.38 127.586 234.072 127.726C233.037 127.474 231.987 127.39 230.923 127.474C229.859 127.558 228.907 127.628 228.068 127.684C227.816 127.432 227.508 127.306 227.144 127.306C226.808 127.306 226.444 127.362 226.052 127.474C225.688 127.586 225.31 127.698 224.918 127.81C224.554 127.922 224.204 127.95 223.868 127.894C223.588 128.118 223.239 128.271 222.819 128.355C222.427 128.411 221.993 128.467 221.517 128.523C221.489 128.663 221.517 128.761 221.601 128.817C221.685 128.845 221.699 128.929 221.643 129.069C221.811 129.265 222.021 129.405 222.273 129.489C222.553 129.573 222.833 129.657 223.113 129.741C223.42 129.825 223.686 129.937 223.91 130.077C224.134 130.189 224.288 130.385 224.372 130.665C224.792 130.665 225.156 130.763 225.464 130.959C225.772 131.155 226.024 131.393 226.22 131.673C226.416 131.953 226.556 132.261 226.64 132.597C226.752 132.905 226.808 133.185 226.808 133.437C226.892 133.66 226.99 133.758 227.102 133.73C227.214 133.702 227.34 133.758 227.48 133.898C227.564 134.262 227.774 134.64 228.11 135.032C228.446 135.396 228.711 135.802 228.907 136.25C228.963 136.95 229.005 137.58 229.033 138.14C229.061 138.672 228.963 139.217 228.739 139.777C228.32 140.813 227.732 141.737 226.976 142.549C226.248 143.361 225.408 144.089 224.456 144.732C223.532 145.348 222.539 145.88 221.475 146.328C220.411 146.776 219.375 147.154 218.367 147.462C218.255 147.434 218.143 147.434 218.031 147.462C217.919 147.49 217.892 147.42 217.947 147.252C217.724 147.448 217.472 147.574 217.192 147.63C216.94 147.686 216.66 147.7 216.352 147.672C216.044 147.672 215.722 147.658 215.386 147.63C215.078 147.602 214.784 147.616 214.504 147.672C214.308 147.476 214.126 147.28 213.958 147.084C213.818 146.916 213.706 146.692 213.622 146.412C213.482 146.412 213.412 146.342 213.412 146.202C213.44 146.062 213.398 145.992 213.286 145.992C213.454 145.712 213.524 145.558 213.496 145.53C213.496 145.474 213.454 145.432 213.37 145.404C213.314 145.376 213.258 145.348 213.202 145.32C213.146 145.264 213.132 145.194 213.16 145.11C213.272 144.886 213.314 144.634 213.286 144.354C213.258 144.047 213.23 143.739 213.202 143.431C213.174 143.123 213.188 142.829 213.244 142.549C213.328 142.269 213.538 142.045 213.874 141.877C214.826 141.989 215.722 141.961 216.562 141.793C217.43 141.597 218.241 141.331 218.997 140.995C219.753 140.659 220.467 140.295 221.139 139.903C221.839 139.511 222.525 139.161 223.197 138.854C223.281 138.602 223.392 138.392 223.532 138.224C223.7 138.056 223.868 137.902 224.036 137.762C224.204 137.622 224.358 137.468 224.498 137.3C224.638 137.132 224.736 136.922 224.792 136.67C224.82 136.474 224.764 136.362 224.624 136.334C224.512 136.278 224.456 136.166 224.456 135.998L223.994 135.872C223.462 135.564 222.861 135.312 222.189 135.116C221.517 134.892 220.943 134.654 220.467 134.402C220.159 134.57 219.865 134.612 219.585 134.528C219.333 134.444 218.997 134.36 218.577 134.276C217.626 134.22 216.702 134.122 215.806 133.982C214.938 133.842 214.098 133.59 213.286 133.227C213.23 133.087 213.16 132.961 213.076 132.849C212.992 132.737 212.838 132.709 212.614 132.765C212.447 132.541 212.279 132.331 212.111 132.135C211.943 131.911 211.789 131.673 211.649 131.421C211.705 131.085 211.747 130.805 211.775 130.581C211.803 130.329 211.719 130.091 211.523 129.867C211.635 129.503 211.719 129.209 211.775 128.985C211.831 128.761 211.831 128.467 211.775 128.104Z"
        fill="#08467D" />
</svg>